<svg height="511pt" viewBox="-55 0 511 511.99795" width="511pt" xmlns="http://www.w3.org/2000/svg"><g fill="#31bc98"><path d="m216.675781 57.367188c31.214844-6.707032 75.71875-13 103.304688 10.300781 16.457031 13.902343 25.394531 32.277343 27.203125 55.945312h32.019531c-2-33.363281-14.957031-60.363281-38.609375-80.34375-65.097656-54.992187-202.101562-30.164062-202.101562-30.164062s-44.242188 8.460937-61.867188 43.449219c-25.417969 50.453124 45.835938 25.902343 45.835938 25.902343.285156-.050781 52.519531-16.132812 94.214843-25.089843zm0 0"/><path d="m251.800781 339.894531c-8.5-3.230469-18.242187-5.414062-28.679687-7.265625l-1.40625 31.921875c12.84375 2.257813 25 5.464844 26.234375 10.804688.453125 1.957031 1.109375 5.417969-1.988281 8.382812-14.847657 14.195313-65.386719 17.417969-91.152344 20.480469-8.742188 1.035156-39.285156 3.824219-40.050782 15.050781-.886718 13.042969 30.613282 13.03125 52.253907 13.03125 7.863281 0 19.574219-.285156 32.40625-1.582031 32.347656-3.265625 55.429687-11.296875 68.597656-23.875 8.765625-8.375 13.402344-18.929688 13.402344-30.523438 0-11.480468-5.140625-27.117187-29.617188-36.425781zm0 0"/><path d="m264.058594 224.988281c-19.703125 7.664063-40.617188 13.765625-60.023438 19.414063-22.1875 6.457031-43.140625 12.554687-58.804687 20.0625-8.054688 3.859375-32.5625 15.601562-32.5625 40.320312 0 24.949219 18.136719 37.722656 33.347656 44.042969 10.210937 4.246094 21.984375 6.996094 34.132813 9.191406l-1.457032-33.023437c-15.097656-3.671875-29.492187-9.824219-29.492187-21.15625 0-14.683594 42.867187-22.691406 63.757812-28.769532 35.128907-10.222656 74.945313-21.8125 107.082031-42.023437 34.242188-21.535156 53.820313-49.78125 58.390626-84.113281-18.25 24.3125-53.882813 59.679687-114.371094 76.054687zm0 0"/></g><path d="m320.039062 233.046875c34.242188-21.535156 53.820313-49.777344 58.390626-84.113281-1.140626 1.519531-2.347657 3.082031-3.625 4.679687-3.835938 4.796875-8.300782 9.914063-13.4375 15.160157-1.714844 1.746093-3.5 3.507812-5.367188 5.273437-1.867188 1.769531-3.808594 3.542969-5.828125 5.316406-5.054687 4.433594-10.601563 8.863281-16.664063 13.171875-3.640624 2.585938-7.46875 5.128906-11.492187 7.605469-2.679687 1.648437-5.449219 3.269531-8.300781 4.851563-14.277344 7.90625-30.753906 14.878906-49.65625 19.996093-19.703125 7.664063-40.617188 13.765625-60.023438 19.414063-6.933594 2.015625-13.746094 4-20.316406 6-6.566406 2.003906-12.890625 4.023437-18.847656 6.117187-4.769532 1.675781-9.296875 3.394531-13.527344 5.191407-2.117188.898437-4.160156 1.8125-6.117188 2.753906 43.21875-.648438 109.195313-11.386719 160.792969-23.382813 4.800781-2.527343 9.492188-5.1875 14.019531-8.035156zm0 0" fill="#2ba07f"/><path d="m201.074219 123.613281h-193.0625s41.222656 93.636719 166.578125 108.371094l.925781 20.984375c9.027344-2.886719 18.644531-5.695312 28.519531-8.566406 7.585938-2.207032 15.402344-4.492188 23.285156-6.90625l.242188-5.511719c125.355469-14.738281 166.578125-108.371094 166.578125-108.371094zm0 0" fill="#ffd039"/><path d="m201.074219 123.613281h-193.0625s41.222656 93.636719 166.578125 108.371094l.925781 20.984375c9.027344-2.886719 18.644531-5.695312 28.519531-8.566406 7.585938-2.207032 15.402344-4.492188 23.285156-6.90625l.242188-5.511719c125.355469-14.738281 166.578125-108.371094 166.578125-108.371094zm0 0" fill="#ffd039"/><path d="m347.179688 123.613281h32.019531c-.570313-9.542969-2.042969-18.5625-4.398438-27.050781h-33.707031c3.296875 8.128906 5.328125 17.117188 6.085938 27.050781zm0 0" fill="#2ba07f"/><path d="m358.070312 123.613281s-41.21875 93.636719-166.574218 108.371094l-1.300782 16.476563c4.535157-1.347657 9.152344-2.695313 13.839844-4.058594 7.585938-2.207032 15.402344-4.492188 23.285156-6.90625l.242188-5.511719c125.355469-14.738281 166.578125-108.371094 166.578125-108.371094zm0 0" fill="#ffae47"/><path d="m220.375 394.941406 5.453125-123.644531c-4.339844 1.28125-8.644531 2.542969-12.871094 3.773437-9.5 2.765626-23.539062 5.929688-36.027343 9.9375l5.125 116.234376c12.796874-1.484376 26.542968-3.410157 38.320312-6.300782zm0 0" fill="#ffd039"/><path d="m247.953125 375.359375c.09375.410156.195313.890625.273437 1.417969l1.65625-37.570313c-8.039062-2.851562-17.097656-4.863281-26.761718-6.578125l-1.40625 31.921875c12.84375 2.257813 25.003906 5.464844 26.238281 10.808594zm0 0" fill="#2ba07f"/><path d="m178.691406 324.996094c-11.914062-2.898438-23.386718-7.34375-27.695312-14.660156l1.808594 41.015624c8.503906 2.863282 17.804687 4.945313 27.34375 6.671876zm0 0" fill="#2ba07f"/><path d="m217.980469 449.195312.9375-21.246093c-6.078125 1.136719-12.5625 2.070312-19.5 2.769531-5.628907.570312-11.042969.945312-16.011719 1.183594l.765625 17.292968s-67.898437 9.089844-108.90625 55.289063h251.617187c-41.003906-46.195313-108.902343-55.289063-108.902343-55.289063zm0 0" fill="#ffd039"/><path d="m212.957031 275.070312c-6.429687 1.871094-14.9375 3.925782-23.640625 6.300782l-5.277344 119.636718c12.222657-1.457031 25.160157-3.324218 36.332032-6.066406l5.457031-123.644531c-4.339844 1.28125-8.644531 2.542969-12.871094 3.773437zm0 0" fill="#ffae47"/><path d="m217.980469 449.195312.9375-21.246093c-6.078125 1.136719-12.5625 2.070312-19.5 2.769531-5.628907.570312-11.042969.945312-16.011719 1.183594l.765625 17.292968s-.394531.054688-1.128906.167969c8.988281 1.421875 69.867187 12.414063 107.773437 55.121094h36.066406c-41.003906-46.195313-108.902343-55.289063-108.902343-55.289063zm0 0" fill="#ffae47"/><path d="m125.316406 37.125-12.605468 3.707031c-3.980469 1.171875-6.261719 5.347657-5.089844 9.328125.964844 3.277344 3.957031 5.398438 7.207031 5.398438.703125 0 1.414063-.101563 2.121094-.308594l12.605469-3.707031c3.980468-1.171875 6.261718-5.347657 5.089843-9.328125-1.171875-3.984375-5.347656-6.257813-9.328125-5.089844zm0 0"/><path d="m400.433594 119.507812c-1.386719-2.125-3.757813-3.410156-6.292969-3.410156h-8.03125c-3.453125-32.261718-17.109375-58.667968-40.667969-78.570312-28.355468-23.953125-72.160156-36.5625-130.191406-37.4765628-42.621094-.6718752-76.667969 5.4023438-78.167969 5.6757808-1.953125.371094-48.09375 9.589844-67.167969 47.449219-7.78125 15.441407-8.3125 27.175781-1.585937 34.878907 13.3125 15.242187 48.917969 4.125 56.40625 1.5625.28125-.082032.671875-.199219 1.253906-.375 23.382813-7.035157 46.21875-13.386719 66.039063-18.367188 4.023437-1.011719 6.464844-5.09375 5.453125-9.121094-1.011719-4.023437-5.097657-6.46875-9.117188-5.453125-20.039062 5.035157-43.105469 11.449219-66.703125 18.550781-.613281.183594-1.015625.304688-1.1875.355469-.15625.042969-.308594.089844-.460937.140625-15.570313 5.367188-35.976563 7.839844-40.367188 2.820313-1.683593-1.929688-1.601562-7.734375 3.691407-18.234375 15.699218-31.164063 56.175781-39.371094 56.496093-39.433594 1.335938-.242188 134.234375-23.597656 195.914063 28.507812 20.085937 16.972657 31.921875 39.511719 35.242187 67.089844h-17.050781c-3.089844-22.5-12.652344-40.269531-29.105469-54.167968-30.019531-25.359376-77.003906-18.945313-109.730469-11.910157-4.058593.871094-6.640624 4.867188-5.769531 8.925781.871094 4.058594 4.871094 6.640626 8.925781 5.765626 29.632813-6.367188 71.914063-12.390626 96.875 8.699218 12.960938 10.945313 20.722657 24.96875 23.601563 42.6875h-330.722656c-2.539063 0-4.90625 1.28125-6.292969 3.410156-1.386719 2.125-1.605469 4.808594-.582031 7.132813.691406 1.566406 17.421875 38.796875 61.242187 70.65625 3.355469 2.441406 8.054688 1.695313 10.496094-1.660156 2.4375-3.355469 1.695312-8.054688-1.660156-10.496094-26.777344-19.46875-42.753906-41.378906-50.515625-54.015625h360.789062c-2.273437 3.71875-5.273437 8.246094-9.050781 13.28125-.003906.003906-.011719.007812-.015625.015625-1.144531 1.523437-2.351563 3.082031-3.613281 4.664063-.027344.035156-.054688.070312-.085938.105468-.402344.503906-.824218 1.015625-1.242187 1.523438-.285157.351562-.5625.695312-.859375 1.050781-.078125.097656-.164063.195313-.246094.292969-3.953125 4.730468-8.515625 9.734375-13.75 14.824218-22.867188 22.230469-63.277344 50.273438-125.9375 57.640626-3.660156.429687-6.46875 3.449218-6.628906 7.128906l-.011719.195312c-5.917969 1.78125-11.824219 3.507813-17.820313 5.253906-.097656.027344-.199218.058594-.296874.085938-6.585938 1.914062-13.058594 3.800781-19.335938 5.707031l-.496094-11.242187c-.164062-3.679688-2.972656-6.699219-6.628906-7.132813-28.230469-3.316406-54.363281-11.070312-77.675781-23.042969-3.691407-1.894531-8.222657-.4375-10.117188 3.253907-1.894531 3.691406-.4375 8.21875 3.25 10.113281 23.148438 11.890625 48.832031 19.878906 76.433594 23.78125l.398437 8.964844c-9.4375 3.152344-18.164062 6.445312-25.777343 10.097656-4.273438 2.046875-13.167969 6.308594-21.117188 13.5625-10.421875 9.511719-15.707031 20.792969-15.707031 33.535156 0 22.699219 13.484375 40.804688 37.976562 50.980469 8.144532 3.386719 17.492188 6.070313 29.773438 8.523437l1.332031 30.265626c-2.761719.300781-5.410156.578124-7.875.839843-4.484375.472657-8.71875.917969-12.4375 1.359375l-1.710937.199219c-22.75 2.589844-43.941406 7.023437-44.949219 21.800781-.28125 4.136719 1.089844 7.953125 3.964844 11.03125 8.679687 9.289063 29.464843 10.027344 55.785156 10.027344 2.625 0 5.742187-.03125 9.214844-.125l.144531 3.21875c-18.757812 3.652344-71.625 17.042969-106.726562 56.589844-1.964844 2.210937-2.445313 5.371094-1.234376 8.070312 1.214844 2.695313 3.898438 4.429688 6.855469 4.429688h251.617188c2.957031 0 5.640625-1.734375 6.851562-4.429688 1.214844-2.699218.730469-5.859375-1.230469-8.070312-12.121093-13.65625-27.585937-25.492188-45.96875-35.175782-3.667968-1.9375-8.214843-.527343-10.148437 3.140626-1.933594 3.671874-.527344 8.21875 3.144531 10.152343 10.8125 5.699219 20.488282 12.175781 28.925782 19.355469h-214.757813c38.628906-32.816406 90.886719-40.25 91.464844-40.328125 3.859375-.515625 6.683593-3.890625 6.507812-7.777344l-.433593-9.902343c.132812-.007813.261718-.023438.394531-.03125 1.300781-.09375 2.613281-.195313 3.945312-.308594.164063-.015625.332031-.03125.496094-.046875 1.351563-.117188 2.714844-.242188 4.09375-.378907 1.808594-.183593 3.585937-.382812 5.339844-.597656.0625-.007812.125-.011718.183593-.023437 1.796876-.214844 3.566407-.453125 5.304688-.703125l-.527344 11.992187c-.171875 3.882813 2.652344 7.253907 6.5 7.777344.152344.019531 15.496094 2.148437 35.484375 9.207031 3.914063 1.378906 8.207031-.667968 9.589844-4.582031 1.378906-3.914063-.671875-8.207031-4.585937-9.585937-13.464844-4.757813-24.863282-7.410157-31.6875-8.757813l.390624-8.773437c20.835938-4.589844 36.605469-11.910157 47.039063-21.875 10.289063-9.828126 15.726563-22.261719 15.726563-35.957032 0-26.402344-21.589844-38.554687-34.460938-43.449218-6.503906-2.472657-13.941406-4.503907-23.554688-6.421876l2.183594-49.46875c30.738282-9.203124 63.382813-20.238281 90.941406-37.570312 35.496094-22.324219 56.183594-51.753906 61.542969-87.488281 10.507813-14.277344 15.144531-24.625 15.433594-25.28125 1.023437-2.320313.804687-5.003907-.582031-7.128907zm-151.304688 227.410157c16.4375 6.25 24.773438 16.140625 24.773438 29.402343 0 9.492188-3.828125 18.164063-11.078125 25.089844-9.273438 8.855469-24.410157 15.257813-45.078125 19.125-.070313.011719-.140625.015625-.210938.027344-4.425781.828125-9.058594 1.535156-13.824218 2.117188-1.660157.199218-3.335938.390624-5.050782.566406-1.132812.113281-2.28125.21875-3.4375.320312-.214844.019532-.425781.039063-.636718.058594-1.121094.09375-2.246094.183594-3.382813.269531-.195313.015625-.390625.027344-.585937.042969-1.148438.082031-2.308594.164062-3.472657.234375-.140625.007813-.277343.015625-.417969.023437-1.097656.066407-2.203124.128907-3.308593.183594-6.449219.320313-12.125.410156-16.453125.410156-9.042969 0-20.292969 0-29.542969-1.03125-10.382813-1.15625-13.871094-3.140624-14.898437-3.949218.921874-.84375 3.804687-2.835938 11.902343-4.796875 7.101563-1.714844 14.855469-2.597657 19.488281-3.125l1.78125-.207031c3.617188-.429688 7.804688-.871094 12.238282-1.335938 4.992187-.527344 9.886718-1.058594 14.660156-1.617188.109375-.007812.21875-.007812.328125-.019531 6.585937-.765625 15.140625-1.835937 23.875-3.332031 19.972656-3.371094 35.867187-8.089844 44.355469-16.207031 4.1875-4 5.570312-9.21875 4.117187-15.503907-1.890625-8.195312-11.507812-12.285156-25.761719-15.273437l.738282-16.742187c7.664062 1.605468 13.675781 3.289062 18.882812 5.269531zm-64.4375-56.433594c5.898438-1.730469 11.992188-3.3125 17.527344-4.75 3.785156-.980469 7.390625-1.917969 10.625-2.820313.757812-.210937 1.5-.421874 2.214844-.628906.464844-.136718.941406-.273437 1.410156-.410156.460938-.136719.925781-.269531 1.390625-.40625l-4.738281 107.414062c-.53125.109376-1.066406.21875-1.605469.328126-.179687.035156-.363281.074218-.546875.109374-7.003906 1.386719-14.488281 2.519532-21.765625 3.46875zm43.648438 94.371094.496094-11.210938c8.214843 1.902344 11.039062 3.496094 11.953124 4.199219.027344.171875.039063.308594.035157.40625-.011719.015625-.03125.035156-.054688.054688-2.648437 2.53125-7.011719 4.691406-12.429687 6.550781zm87.699218-158.167969c-27.402343 17.234375-60.976562 28.144531-92.191406 37.367188-.050781.015624-.101562.019531-.148437.035156-4.328125 1.277344-8.625 2.539062-12.839844 3.765625-3.550781 1.03125-7.859375 2.148437-12.421875 3.332031-26.601562 6.902344-56.753906 14.726562-56.753906 32.652344 0 16.648437 18.582031 23.878906 29.746094 27.035156l.789062 17.925781c-9.457031-2.042969-17.003906-4.285156-23.320312-6.910156-19.054688-7.917969-28.714844-20.402344-28.714844-37.105469 0-17.914062 16.144531-27.726562 28.292968-33.546875 8.316407-3.984375 18.320313-7.597656 29.277344-11.105469.015625-.003906.035156-.003906.050782-.011718 6.832031-2.183594 13.996093-4.316406 21.109374-6.402344.1875-.054688.375-.109375.558594-.164062 2.230469-.652344 4.457032-1.300782 6.660156-1.941407 18.859376-5.488281 40.21875-11.703125 60.277344-19.476562 42.667969-11.625 73.433594-32.277344 94.953125-52.769531-9.195312 18.289062-24.351562 34.128906-45.324219 47.320312zm-145.316406 88.132812c-9.011718-3.234374-14.007812-7.082031-14.007812-10.980468 0-.03125.917968-3.398438 13.15625-8.339844zm0 0"/></svg>